<?xml version="1.0" standalone="no"?>
<!DOCTYPE svg PUBLIC "-//W3C//DTD SVG 20010904//EN"
 "http://www.w3.org/TR/2001/REC-SVG-20010904/DTD/svg10.dtd">
<svg version="1.0" xmlns="http://www.w3.org/2000/svg"
 width="500.000000pt" height="500.000000pt" viewBox="0 0 500.000000 500.000000"
 preserveAspectRatio="xMidYMid meet">
<metadata>
Created by potrace 1.14, written by Peter Selinger 2001-2017
</metadata>
<g transform="translate(0.000000,500.000000) scale(0.100000,-0.100000)"
fill="#000000" stroke="none">
<path d="M3071 4684 c-90 -102 -230 -332 -246 -402 l-7 -32 -43 43 c-72 71
-114 105 -171 138 -47 27 -66 31 -127 32 -40 1 -82 -4 -94 -11 -120 -66 -546
-76 -662 -16 -14 8 -33 14 -41 14 -25 0 -113 56 -149 94 -42 43 -84 49 -102
14 -15 -28 -20 -253 -7 -328 12 -73 36 -138 65 -178 45 -61 -11 -76 -114 -31
-72 30 -149 137 -188 261 -9 31 -24 59 -32 63 -16 6 -43 -11 -43 -27 0 -5 -17
-38 -38 -73 -57 -94 -96 -245 -108 -420 -1 -16 -2 -37 -3 -46 -1 -11 -9 -14
-28 -12 -42 6 -140 -32 -192 -74 -51 -42 -75 -65 -142 -144 -26 -30 -61 -70
-78 -89 -17 -19 -31 -38 -31 -42 0 -5 -7 -16 -15 -25 -9 -10 -36 -45 -60 -79
-65 -90 -152 -171 -214 -201 -31 -15 -58 -30 -61 -34 -3 -3 -24 -16 -46 -27
-116 -59 -9 -122 184 -109 45 3 82 4 82 1 0 -8 -34 -58 -46 -69 -30 -27 -141
-204 -181 -288 -27 -57 -49 -206 -39 -260 15 -81 79 -62 195 57 41 42 76 74
78 72 3 -3 -2 -33 -10 -68 -32 -133 -28 -239 15 -350 12 -32 9 -41 -63 -194
-27 -55 -55 -107 -64 -114 -8 -7 -15 -18 -15 -25 0 -19 -93 -118 -151 -161
-63 -46 -66 -76 -11 -100 66 -28 292 -5 365 37 11 6 21 9 23 6 3 -3 17 -63 28
-117 5 -29 52 -117 84 -158 35 -44 108 -92 141 -92 11 0 23 -5 26 -11 4 -5 18
-14 31 -19 13 -5 24 -16 24 -24 0 -27 62 -131 96 -163 38 -34 149 -99 187
-108 15 -4 30 -21 40 -44 32 -72 176 -190 287 -235 25 -10 65 -29 90 -41 93
-47 235 -97 309 -110 42 -7 135 -25 206 -40 72 -15 175 -30 230 -35 124 -9
304 -5 347 9 18 6 105 34 193 62 301 97 512 200 685 334 36 27 72 55 80 62
175 135 376 340 440 448 13 22 50 75 82 119 60 81 110 162 169 276 19 36 37
67 40 70 3 3 11 20 18 38 8 17 21 32 30 32 9 0 31 9 49 20 18 11 40 20 50 20
33 0 100 54 178 141 53 60 90 254 73 385 -4 27 -9 76 -13 110 l-5 60 52 28
c98 52 115 63 166 105 86 72 135 188 90 212 -11 5 -28 8 -38 4 -10 -3 -64 4
-122 15 -126 25 -188 61 -219 127 -11 24 -20 46 -20 49 0 3 -17 47 -37 98 -35
88 -88 180 -176 309 -96 140 -122 174 -165 219 l-45 47 24 10 c56 22 135 114
160 187 17 50 18 58 21 126 2 44 -2 61 -16 77 -25 27 -47 26 -89 -2 -19 -13
-66 -29 -106 -36 -39 -7 -73 -17 -77 -22 -3 -5 -20 -9 -39 -9 -18 0 -35 -4
-37 -10 -3 -10 -141 -16 -276 -12 -68 2 -84 5 -88 20 -21 59 -80 166 -107 192
-18 16 -55 42 -82 57 -113 60 -147 90 -218 196 -33 49 -58 133 -60 205 -3 75
-21 78 -76 16z m-566 -1431 c11 -15 17 -16 36 -5 20 11 41 9 124 -8 55 -12
117 -24 139 -27 35 -5 40 -11 67 -67 43 -93 83 -162 128 -222 27 -36 35 -54
26 -54 -36 0 -115 -49 -172 -107 -53 -53 -63 -68 -63 -98 0 -39 24 -50 35 -16
16 51 143 136 234 156 31 6 37 3 85 -43 60 -58 132 -110 207 -148 30 -14 70
-40 89 -57 32 -28 70 -93 70 -121 0 -6 9 -29 19 -49 11 -21 16 -37 13 -35 -4
2 -19 10 -34 17 -29 15 -40 38 -13 27 8 -3 15 -1 15 4 0 16 -38 49 -64 56 -31
7 -86 -23 -86 -48 0 -23 -20 -32 -112 -53 -46 -10 -100 -31 -134 -51 -64 -39
-70 -40 -91 -19 -19 20 -9 33 59 77 59 39 61 64 4 62 -56 -2 -115 -48 -148
-114 -31 -62 -35 -104 -13 -157 8 -19 15 -53 15 -74 0 -32 4 -40 24 -45 31 -7
66 11 66 35 0 45 163 166 256 190 47 13 187 -10 214 -34 9 -8 31 -18 48 -21
37 -8 36 -4 52 -159 7 -60 16 -126 21 -145 7 -27 4 -42 -10 -69 -18 -37 -42
-48 -99 -50 -18 -1 -44 -8 -57 -17 -21 -14 -25 -14 -25 -2 0 9 12 32 26 53 40
59 60 156 46 222 -20 94 -88 155 -175 156 -45 1 -61 -5 -123 -45 -85 -55 -106
-92 -112 -194 -3 -51 0 -79 11 -100 21 -39 62 -84 76 -84 6 0 11 -3 11 -8 0
-4 13 -13 28 -20 43 -18 35 -72 -10 -72 -10 0 -16 -5 -13 -10 4 -6 -1 -24 -9
-42 -9 -17 -16 -37 -16 -45 0 -7 -11 -13 -24 -13 -14 0 -27 -4 -30 -9 -3 -4
-28 -11 -55 -15 -137 -18 -191 26 -300 247 -60 119 -78 148 -98 153 -35 9
-140 -2 -189 -19 -22 -8 -66 -17 -97 -21 -64 -6 -147 -38 -172 -66 -12 -13
-26 -17 -45 -14 -20 5 -29 1 -34 -12 -13 -33 -25 -156 -31 -314 -7 -193 -12
-232 -36 -292 -10 -26 -16 -48 -13 -48 4 0 1 -7 -6 -15 -20 -24 -35 -18 -65
25 l-28 40 18 46 c17 44 17 46 -2 67 -35 38 -35 46 -4 101 30 52 40 96 22 96
-5 0 -7 24 -5 52 5 63 -10 115 -42 145 -13 12 -24 32 -24 45 0 15 -17 39 -46
67 -36 33 -43 45 -33 52 11 7 9 13 -11 29 l-25 21 34 -3 c43 -4 49 11 17 42
-37 34 -115 40 -155 11 -58 -42 -67 -95 -11 -66 33 17 90 26 90 15 0 -4 -9
-10 -20 -13 -12 -3 -18 -11 -15 -19 4 -10 -16 -13 -97 -14 -144 -1 -253 -41
-346 -128 -55 -51 -89 -134 -62 -151 6 -3 10 -32 10 -63 0 -53 2 -59 36 -85
44 -36 64 -30 64 19 0 20 6 42 14 48 8 6 17 25 19 41 11 77 64 153 128 185
103 53 190 66 247 36 17 -9 32 -18 32 -19 0 -1 -28 -2 -63 -2 -55 0 -69 -4
-101 -29 -51 -39 -78 -102 -78 -181 1 -100 51 -175 137 -206 19 -7 35 -15 35
-19 0 -3 -15 -12 -33 -21 -26 -13 -32 -22 -32 -47 0 -20 -9 -40 -23 -54 -23
-22 -24 -22 -35 -4 -7 10 -20 26 -29 35 -10 8 -18 21 -18 28 0 27 -50 7 -90
-37 -14 -15 -33 -30 -43 -33 -9 -4 -22 -17 -27 -29 -5 -13 -9 -18 -10 -13 0 6
-4 4 -9 -4 -6 -9 -4 -22 5 -37 12 -18 12 -24 2 -35 -15 -16 -19 -59 -6 -59 4
0 8 5 8 10 0 6 5 10 10 10 10 0 6 -87 -4 -98 -3 -2 -17 2 -32 10 -41 19 -105
116 -99 149 2 14 -1 31 -8 38 -6 6 -7 11 -2 11 5 0 -2 11 -15 25 l-23 25 31 6
c42 8 69 38 53 58 -7 8 -25 18 -41 21 -87 19 -197 249 -230 480 -6 44 -13 90
-15 103 -2 13 -7 67 -10 120 l-6 97 20 -43 c22 -45 102 -146 136 -172 11 -8
38 -31 60 -51 39 -36 105 -61 105 -40 0 5 -5 13 -11 17 -7 4 -9 26 -4 63 6 55
11 79 55 271 20 86 82 285 93 296 2 3 25 7 51 10 47 6 47 6 99 -50 71 -76 124
-98 230 -96 45 1 90 1 100 1 18 0 25 43 8 53 -5 3 -17 38 -26 77 -26 106 -12
365 26 484 5 17 13 46 18 65 l8 35 13 -45 c34 -125 169 -303 268 -354 34 -18
97 -21 107 -6 3 5 -7 27 -24 47 -61 77 -86 215 -79 428 3 80 8 148 10 150 3 3
27 9 54 15 27 6 76 16 109 24 81 19 86 19 100 -1z m1930 -662 c49 -22 95 -67
95 -93 0 -10 7 -21 15 -24 31 -12 70 -233 50 -281 -5 -10 -7 -41 -6 -68 2 -44
-2 -58 -38 -110 -34 -51 -52 -68 -124 -107 -46 -26 -106 -56 -133 -66 -34 -12
-48 -23 -46 -34 1 -9 -7 -34 -19 -55 -52 -93 -74 -128 -81 -131 -4 -2 -8 -7
-8 -12 0 -10 -55 -92 -114 -168 -25 -33 -46 -65 -46 -70 0 -6 -4 -12 -10 -14
-5 -1 -56 -66 -114 -143 -58 -77 -127 -169 -153 -203 -57 -76 -194 -195 -297
-259 -93 -58 -227 -132 -301 -167 -255 -120 -298 -137 -455 -173 -300 -68
-378 -73 -545 -34 -49 12 -139 33 -200 47 -60 15 -129 35 -152 45 -23 10 -48
19 -55 19 -15 0 -152 51 -213 80 -22 10 -56 25 -75 34 -36 16 -54 30 -153 118
-67 59 -86 90 -103 173 -11 54 -11 58 2 40 9 -11 20 -19 26 -17 6 2 18 -4 28
-13 10 -9 46 -26 82 -39 150 -55 405 -2 679 140 14 7 37 11 50 9 12 -3 33 2
46 10 22 15 23 14 23 -12 0 -31 33 -103 68 -150 66 -88 273 -128 452 -87 41 9
82 26 99 40 22 18 41 24 78 24 52 0 110 25 153 66 48 45 140 256 140 321 0 42
-27 139 -48 171 -8 12 -26 25 -41 28 -14 4 -32 11 -38 17 -23 17 -208 -10
-297 -44 -27 -11 -57 -19 -67 -19 -10 0 -20 -4 -24 -9 -3 -5 -18 -12 -34 -16
-16 -3 -35 -13 -42 -21 -6 -8 -18 -14 -26 -14 -9 0 -76 -30 -150 -66 -74 -36
-136 -64 -138 -62 -1 2 4 46 12 98 10 67 13 140 10 247 l-5 151 51 25 c64 30
163 65 288 105 l97 30 11 -25 c6 -13 11 -29 11 -35 0 -22 83 -194 108 -223 28
-34 118 -86 174 -101 57 -17 100 -18 192 -8 l59 6 -21 -27 c-22 -27 -31 -92
-12 -80 15 9 80 -22 80 -39 0 -8 9 -18 20 -21 11 -3 20 -13 20 -21 0 -24 28
-15 52 16 23 32 46 38 66 18 9 -9 17 -6 37 12 14 13 25 18 25 12 0 -20 22 -13
27 8 5 20 36 26 106 21 21 -2 30 3 34 17 3 11 18 26 34 32 15 7 31 20 34 29 3
10 16 24 30 31 19 10 23 19 19 36 -4 17 -1 26 10 30 10 4 16 18 16 40 0 33 28
74 50 74 16 0 80 61 80 76 0 8 4 14 9 14 24 0 92 183 89 240 -4 67 5 101 38
152 l36 55 65 -33 c107 -55 182 -79 204 -66 10 6 37 14 61 18 24 3 61 14 83
24 22 10 52 23 68 29 35 14 38 51 4 51 -55 0 -118 134 -161 342 -3 14 -9 33
-12 42 -8 21 11 20 61 -3z m-2945 -76 c0 -7 -7 -16 -16 -19 -12 -5 -15 -2 -10
10 3 8 6 20 6 25 0 6 5 7 10 4 6 -3 10 -12 10 -20z m1745 -475 c11 -18 -6 -50
-26 -50 -22 0 -34 22 -25 45 6 17 42 20 51 5z m171 -90 c16 -16 0 -97 -25
-123 -20 -22 -25 -23 -81 -14 -62 10 -69 17 -76 75 -3 26 17 29 36 7 9 -11 22
-14 44 -9 39 8 56 22 56 44 0 16 11 26 31 29 3 1 10 -4 15 -9z m-1606 -66 c0
-8 -4 -12 -10 -9 -5 3 -10 10 -10 16 0 5 5 9 10 9 6 0 10 -7 10 -16z m2051
-63 c-11 -21 -39 -52 -61 -69 -39 -28 -43 -29 -71 -15 -28 14 -31 33 -6 33 7
0 44 21 82 45 39 25 71 45 73 45 1 0 -7 -17 -17 -39z m-481 -108 c0 -26 -16
-47 -29 -39 -7 5 -7 14 1 31 13 29 28 33 28 8z m-1683 -98 c1 -5 -1 -16 -5
-23 -12 -18 -42 -4 -42 20 0 14 6 19 22 16 12 -2 23 -7 25 -13z m162 -79 c16
-19 17 -66 2 -93 -12 -23 -67 -44 -98 -38 -10 2 -23 4 -29 4 -12 1 -24 34 -30
80 -2 20 0 22 19 16 12 -4 37 -9 55 -12 30 -5 34 -2 45 26 13 35 19 38 36 17z
m1029 -183 c-4 -22 -22 -20 -26 1 -2 10 3 16 13 16 10 0 15 -7 13 -17z m-1028
-43 c-13 -24 -26 -26 -33 -6 -4 10 2 16 16 19 12 2 23 5 25 6 1 0 -2 -8 -8
-19z m-907 -144 c22 -7 23 -63 1 -88 -14 -15 -15 -20 -4 -33 7 -9 19 -14 26
-11 22 8 55 -42 47 -72 -5 -21 -3 -24 10 -19 11 4 21 -1 27 -14 18 -33 7 -40
-30 -21 -26 14 -45 38 -73 93 -22 41 -43 79 -48 85 -7 9 -38 98 -39 111 0 2
15 -4 33 -11 17 -8 40 -17 50 -20z m550 -192 c5 -27 3 -33 -16 -38 -43 -11
-45 -8 -30 36 24 71 33 71 46 2z"/>
<path d="M2510 1526 c0 -20 19 -31 32 -18 7 7 3 14 -11 21 -17 10 -21 9 -21
-3z"/>
<path d="M2357 1491 c-15 -25 -15 -30 -2 -41 8 -6 19 -9 25 -5 5 3 10 3 11 -2
7 -80 34 -102 78 -64 19 17 20 21 7 46 -8 15 -28 36 -45 46 -18 11 -34 26 -37
34 -9 22 -18 19 -37 -14z"/>
</g>
</svg>
